<svg width="22" height="20" viewBox="0 0 22 20" fill="none" xmlns="http://www.w3.org/2000/svg">
<path d="M10.2797 0.918174C10.5796 -0.00210298 11.8815 -0.00210218 12.1813 0.918174L13.9324 6.29257C14.0666 6.7042 14.4503 6.98278 14.8832 6.98278H20.544C21.5134 6.98278 21.9157 8.22381 21.1307 8.79257L16.5558 12.1072C16.2044 12.3619 16.0573 12.8141 16.1918 13.2268L17.9403 18.5934C18.2404 19.5143 17.1871 20.2812 16.4028 19.713L11.8173 16.3907C11.4672 16.137 10.9939 16.137 10.6438 16.3907L6.05828 19.713C5.27402 20.2812 4.22073 19.5143 4.52075 18.5934L6.26933 13.2268C6.40378 12.8141 6.2567 12.3619 5.90524 12.1072L1.33037 8.79257C0.54536 8.22381 0.947691 6.98278 1.91709 6.98278H7.57784C8.01077 6.98278 8.39453 6.7042 8.52865 6.29257L10.2797 0.918174Z" fill="#070707"/>
</svg>
